<svg width="16" height="16" viewBox="0 0 16 16" fill="none" xmlns="http://www.w3.org/2000/svg">
    <path d="M8 1C9.97933 1.052 11.6278 1.73683 12.9455 3.0545C14.2632 4.37217 14.948 6.02067 15 8C14.948 9.97933 14.2632 11.6278 12.9455 12.9455C11.6278 14.2632 9.97933 14.948 8 15C6.02067 14.948 4.37217 14.2632 3.0545 12.9455C1.73683 11.6278 1.052 9.97933 1 8C1.052 6.02067 1.73683 4.37217 3.0545 3.0545C4.37217 1.73683 6.02067 1.052 8 1ZM7.4065 7.4065H5.094C4.92733 7.4065 4.78667 7.46383 4.672 7.5785C4.55733 7.69317 4.5 7.83383 4.5 8.0005C4.5 8.16717 4.55733 8.30783 4.672 8.4225C4.78667 8.53717 4.92733 8.5945 5.094 8.5945H7.4065V10.907C7.4065 11.0737 7.46383 11.2143 7.5785 11.329C7.69317 11.4437 7.83383 11.501 8.0005 11.501C8.16717 11.501 8.30783 11.4437 8.4225 11.329C8.53717 11.2143 8.5945 11.0737 8.5945 10.907V8.5945H10.907C11.0737 8.5945 11.2143 8.53717 11.329 8.4225C11.4437 8.30783 11.501 8.16717 11.501 8.0005C11.501 7.83383 11.4437 7.69317 11.329 7.5785C11.2143 7.46383 11.0737 7.4065 10.907 7.4065H8.5945V5.094C8.5945 4.92733 8.53717 4.78667 8.4225 4.672C8.30783 4.55733 8.16717 4.5 8.0005 4.5C7.83383 4.5 7.69317 4.55733 7.5785 4.672C7.46383 4.78667 7.4065 4.92733 7.4065 5.094V7.4065Z" fill="#FFFFFF" fill-opacity="0.96"/>
</svg>
